<?xml version="1.0" encoding="UTF-8" standalone="no" ?>
<!DOCTYPE svg PUBLIC "-//W3C//DTD SVG 1.1//EN" "http://www.w3.org/Graphics/SVG/1.1/DTD/svg11.dtd">
<svg xmlns="http://www.w3.org/2000/svg" xmlns:xlink="http://www.w3.org/1999/xlink" version="1.1" width="1024" height="450" viewBox="0 0 1024 450" xml:space="preserve">
<desc>Created with Fabric.js 5.2.4</desc>
<defs>
</defs>
<rect x="0" y="0" width="100%" height="100%" fill="transparent"></rect>
<g transform="matrix(1 0 0 1 512 225)" id="49288729-02e1-4697-ae88-75def9968d28"  >
<rect style="stroke: none; stroke-width: 1; stroke-dasharray: none; stroke-linecap: butt; stroke-dashoffset: 0; stroke-linejoin: miter; stroke-miterlimit: 4; fill: rgb(255,255,255); fill-rule: nonzero; opacity: 1; visibility: hidden;" vector-effect="non-scaling-stroke"  x="-512" y="-225" rx="0" ry="0" width="1024" height="450" />
</g>
<g transform="matrix(Infinity NaN NaN Infinity 0 0)" id="19e63f7c-8b17-4ba5-9229-c691096b8693"  >
</g>
<g transform="matrix(0.64 0 0 0.64 512 225)"  >
<g style="" vector-effect="non-scaling-stroke"   >
		<g transform="matrix(1 0 0 1 -581.82 -310)"  >
<rect style="stroke: none; stroke-width: 1; stroke-dasharray: none; stroke-linecap: butt; stroke-dashoffset: 0; stroke-linejoin: miter; stroke-miterlimit: 4; fill: rgb(255,255,255); fill-opacity: 0; fill-rule: nonzero; opacity: 1;" vector-effect="non-scaling-stroke"  x="-50" y="-50" rx="0" ry="0" width="100" height="100" />
</g>
		<g transform="matrix(1 0 0 1 8.18 0)"  >
<rect style="stroke: none; stroke-width: 1; stroke-dasharray: none; stroke-linecap: butt; stroke-dashoffset: 0; stroke-linejoin: miter; stroke-miterlimit: 4; fill: rgb(255,255,255); fill-rule: nonzero; opacity: 1; visibility: hidden;" vector-effect="non-scaling-stroke"  x="-640" y="-360" rx="0" ry="0" width="1280" height="720" />
</g>
		<g transform="matrix(1.81 0 0 1.81 523.44 0)"  >
<path style="stroke: none; stroke-width: 1; stroke-dasharray: none; stroke-linecap: butt; stroke-dashoffset: 0; stroke-linejoin: miter; stroke-miterlimit: 4; fill: rgb(0,0,0); fill-rule: nonzero; opacity: 1;" vector-effect="non-scaling-stroke"  transform=" translate(-615.84, -363.91)" d="M 613.399 270.537 L 613.399 271.82 C 613.399 271.82 614.597 272.33299999999997 614.597 274.044 C 614.597 275.755 612.031 277.893 612.031 277.893 L 611.603 282.683 L 613.0999999999999 283.881 L 614.5969999999999 282.85499999999996 C 614.5969999999999 282.85499999999996 617.5909999999999 287.217 620.5839999999998 288.75699999999995 C 623.5779999999999 290.29699999999997 625.5449999999998 292.69199999999995 625.5449999999998 292.69199999999995 L 627.3409999999999 293.11999999999995 L 628.7949999999998 295.08699999999993 C 628.7949999999998 295.08699999999993 632.6439999999999 295.6859999999999 633.3279999999999 297.2249999999999 C 634.0119999999998 298.76499999999993 633.7559999999999 300.5609999999999 633.7559999999999 300.5609999999999 C 633.7559999999999 300.5609999999999 635.9799999999999 304.5809999999999 637.3489999999998 306.3769999999999 C 638.7179999999997 308.1729999999999 641.0269999999998 312.7919999999999 640.7699999999999 315.7859999999999 C 640.5129999999999 318.7799999999999 644.1909999999999 320.40499999999986 644.2769999999998 323.1419999999999 C 644.3629999999998 325.8789999999999 646.3299999999998 331.8669999999999 645.3029999999998 332.89299999999986 C 644.2769999999998 333.91899999999987 636.9199999999997 344.09799999999984 635.1239999999998 344.52599999999984 C 633.3279999999997 344.95399999999984 631.5319999999998 342.9859999999998 631.5319999999998 342.9859999999998 L 630.1629999999998 344.09799999999984 C 630.1629999999998 344.09799999999984 631.5319999999998 346.57899999999984 633.7549999999998 348.88799999999986 C 635.9789999999998 351.19799999999987 645.3879999999998 363.68599999999986 647.7829999999998 369.50199999999984 C 650.1779999999998 375.3179999999998 654.4549999999998 378.48299999999983 657.3629999999998 383.61499999999984 C 660.2709999999998 388.74699999999984 676.0949999999998 411.5849999999998 676.0949999999998 411.5849999999998 L 670.9629999999999 414.1509999999998 L 668.4819999999999 413.46699999999976 C 668.4819999999999 413.46699999999976 664.4619999999999 416.2039999999998 664.2049999999998 416.11899999999974 C 663.9479999999999 416.03399999999976 647.8679999999998 421.84999999999974 640.1699999999998 422.27799999999974 C 632.4719999999999 422.70599999999973 625.1159999999999 423.30399999999975 625.1159999999999 423.30399999999975 L 623.5759999999999 425.95599999999973 L 621.266 423.13299999999975 L 621.266 428.09399999999977 C 621.266 428.09399999999977 622.977 431.94299999999976 621.9499999999999 432.6269999999998 C 620.924 433.3109999999998 619.64 433.13999999999976 619.64 433.13999999999976 C 619.64 433.13999999999976 619.554 439.9829999999998 618.528 441.52199999999976 C 617.5020000000001 443.0619999999998 614.166 446.5689999999998 614.166 446.5689999999998 L 614.2510000000001 449.39199999999977 L 616.2180000000001 452.81299999999976 C 616.2180000000001 452.81299999999976 615.0200000000001 455.63599999999974 612.9680000000001 456.83299999999974 C 610.9150000000001 458.02999999999975 614.508 459.99799999999976 613.652 462.39299999999974 C 612.797 464.7879999999997 615.363 468.97899999999976 614.422 469.57799999999975 C 613.481 470.17699999999974 603.388 471.03199999999975 602.447 469.06499999999977 C 601.506 467.0979999999998 601.763 459.99799999999976 602.447 458.97199999999975 C 603.131 457.94499999999977 603.987 456.31999999999977 603.217 455.12299999999976 C 602.447 453.92599999999976 605.013 451.1029999999998 604.586 449.0499999999998 C 604.158 446.9969999999998 603.474 442.2929999999998 604.073 438.3579999999998 C 604.672 434.4229999999998 604.928 430.4029999999998 604.244 428.43599999999975 C 603.5600000000001 426.46899999999977 600.965 424.32999999999976 601.835 419.96799999999973 C 602.705 415.6059999999997 604.587 412.6969999999997 604.587 412.6969999999997 C 604.587 412.6969999999997 602.192 409.10499999999973 602.3629999999999 407.5649999999997 C 602.534 406.0249999999997 603.9029999999999 400.9789999999997 603.9029999999999 400.9789999999997 C 603.9029999999999 400.9789999999997 603.8169999999999 395.3339999999997 603.5609999999999 394.9909999999997 C 603.304 394.6489999999997 601.7249999999999 391.2279999999997 601.66 390.5429999999997 C 601.5939999999999 389.8589999999997 599.028 400.89299999999974 598.857 401.23499999999973 C 598.6859999999999 401.5769999999997 596.975 410.13099999999974 597.66 411.92699999999974 C 598.3439999999999 413.72299999999973 600.7389999999999 414.7499999999997 600.226 416.28899999999976 C 599.713 417.8289999999998 598.088 420.99299999999977 598.601 423.1319999999998 C 599.114 425.26999999999975 599.799 431.6849999999998 599.799 431.6849999999998 C 599.799 431.6849999999998 602.365 435.0209999999998 601.937 437.92899999999975 C 601.509 440.83699999999976 599.6270000000001 446.48199999999974 599.97 449.21999999999974 C 600.312 451.95699999999977 599.97 456.83299999999974 596.976 460.51099999999974 C 593.982 464.18899999999974 591.331 461.79399999999976 590.817 458.2019999999997 C 590.304 454.60999999999973 592.015 440.3249999999997 592.015 440.3249999999997 C 592.015 440.3249999999997 588.936 435.4489999999997 588.765 433.8239999999997 C 588.5939999999999 432.1989999999997 588.765 431.42899999999975 588.765 431.42899999999975 C 588.765 431.42899999999975 581.922 426.03999999999974 581.58 423.73099999999977 C 581.238 421.42199999999974 581.58 413.20999999999975 581.58 413.20999999999975 C 581.58 413.20999999999975 576.619 406.87999999999977 572.171 406.02499999999975 C 567.7230000000001 405.16999999999973 560.88 404.82699999999977 560.88 404.82699999999977 C 560.88 404.82699999999977 562.933 386.94999999999976 563.617 382.9299999999998 C 564.3009999999999 378.9099999999998 565.67 372.1529999999998 565.67 372.1529999999998 C 565.67 372.1529999999998 563.0179999999999 371.8109999999998 562.42 369.6729999999998 C 558.058 368.7319999999998 555.577 367.5349999999998 555.577 367.5349999999998 C 555.577 367.5349999999998 557.63 351.5399999999998 559.426 344.8679999999998 C 561.2220000000001 338.1959999999998 564.301 323.8259999999998 565.927 319.8919999999998 C 567.552 315.9569999999998 570.546 306.54799999999983 570.546 306.54799999999983 C 570.546 306.54799999999983 568.1510000000001 302.95599999999985 568.322 300.81699999999984 C 568.493 298.67899999999986 570.717 296.19799999999987 570.717 296.19799999999987 L 570.46 293.8029999999999 C 570.46 293.8029999999999 573.283 291.8359999999999 573.539 291.6649999999999 C 573.795 291.4939999999999 585.5989999999999 288.3289999999999 585.5989999999999 288.3289999999999 L 590.132 283.7959999999999 L 593.358 282.7179999999999 L 592.875 275.9619999999999 L 592.651 272.4319999999999 C 592.651 272.4319999999999 582.434 271.6489999999999 582.6899999999999 270.9649999999999 C 582.9459999999999 270.28099999999995 591.9279999999999 269.5109999999999 591.9279999999999 269.5109999999999 L 592.2699999999999 258.7339999999999 L 611.0879999999999 257.53599999999994 L 613.0549999999998 267.7149999999999 C 613.0549999999998 267.7149999999999 622.4639999999998 267.80099999999993 622.6349999999999 268.74099999999993 C 622.808 269.681 613.399 270.537 613.399 270.537 z" stroke-linecap="round" />
</g>
		<g transform="matrix(1.93 0 0 1.93 -550.18 0)"  >
<path style="stroke: none; stroke-width: 1; stroke-dasharray: none; stroke-linecap: butt; stroke-dashoffset: 0; stroke-linejoin: miter; stroke-miterlimit: 4; fill: rgb(0,0,0); fill-rule: nonzero; opacity: 1;" vector-effect="non-scaling-stroke"  transform=" translate(-142.41, -361.96)" d="M 154.028 283.919 C 154.028 283.919 164.595 285.71299999999997 165.791 278.137 C 166.987 270.561 156.619 268.367 156.619 268.367 L 157.018 265.177 C 157.018 265.177 147.248 256.803 144.258 257.202 C 141.267 257.601 140.47 263.582 140.47 263.582 C 140.47 263.582 127.31099999999999 263.383 126.513 267.171 C 125.715 270.959 126.712 276.542 135.685 279.931 C 135.087 282.32399999999996 134.28900000000002 284.104 134.28900000000002 284.104 C 134.28900000000002 284.104 128.46400000000003 284.118 126.29200000000002 289.30199999999996 C 124.12000000000002 294.486 121.13000000000001 299.07199999999995 121.13000000000001 299.07199999999995 C 121.13000000000001 299.07199999999995 118.73700000000001 307.44599999999997 120.13300000000001 310.8349999999999 C 121.52900000000001 314.22399999999993 118.46100000000001 315.42099999999994 119.69600000000001 319.60799999999995 C 120.93100000000001 323.79499999999996 120.73100000000001 329.17799999999994 120.73100000000001 329.17799999999994 C 120.73100000000001 329.17799999999994 117.28600000000002 327.5319999999999 116.322 327.3519999999999 C 115.358 327.17099999999994 112.708 327.4719999999999 112.708 327.4719999999999 L 112.467 325.24299999999994 C 112.467 325.24299999999994 113.551 324.21899999999994 113.13 323.4959999999999 C 112.708 322.7729999999999 111.323 323.4959999999999 111.323 323.4959999999999 C 111.323 323.4959999999999 108.43199999999999 321.86999999999995 106.80499999999999 321.8089999999999 C 105.17899999999999 321.7489999999999 105.23899999999999 322.5319999999999 105.23899999999999 322.5319999999999 L 93.67399999999999 320.6649999999999 L 93.31299999999999 322.2309999999999 L 94.81899999999999 322.83299999999986 L 95.11999999999999 323.6159999999999 L 103.493 324.6999999999999 L 104.63799999999999 326.26599999999985 L 104.81899999999999 328.61499999999984 L 107.469 329.63899999999984 C 107.469 329.63899999999984 106.92699999999999 332.2889999999998 108.011 332.65099999999984 C 109.095 333.01199999999983 110.24 332.65099999999984 110.24 332.65099999999984 C 110.24 332.65099999999984 109.57799999999999 333.97599999999983 110.36 334.39799999999985 C 111.143 334.8199999999999 110.721 337.2889999999999 111.565 337.65099999999984 C 112.408 338.01199999999983 118.432 338.1929999999998 118.432 338.1929999999998 C 118.432 338.1929999999998 119.33500000000001 340.2409999999998 120.42 340.3609999999998 C 121.504 340.4819999999998 120.42 344.09599999999983 120.42 344.09599999999983 C 120.42 344.09599999999983 118.756 348.4669999999998 119.632 351.4859999999998 C 120.50800000000001 354.5049999999998 119.34 355.3809999999998 119.632 357.4259999999998 C 119.924 359.47099999999983 117.977 364.9239999999998 117.197 368.5269999999998 C 116.418 372.1299999999998 111.744 387.2239999999998 111.354 389.5609999999998 C 110.965 391.8979999999998 108.919 394.5269999999998 108.627 396.2799999999998 C 108.335 398.0329999999998 107.848 400.6619999999998 107.848 400.6619999999998 C 107.848 400.6619999999998 105.9 401.9279999999998 106.193 402.9019999999998 C 106.485 403.8759999999998 105.998 405.4339999999998 105.414 406.30999999999983 C 104.83 407.1859999999998 100.643 415.3659999999998 100.545 418.2869999999998 C 100.44800000000001 421.2079999999998 94.995 430.1669999999998 94.702 433.2829999999998 C 94.41 436.3989999999998 92.657 442.4369999999998 92.852 442.9229999999998 C 93.047 443.4099999999998 94.215 446.62299999999976 94.215 446.62299999999976 C 94.215 446.62299999999976 90.904 455.3869999999998 91.781 456.65299999999974 C 92.65700000000001 457.91899999999976 97.52600000000001 462.98199999999974 103.56400000000001 463.5669999999997 C 109.60100000000001 464.1509999999997 110.283 460.83999999999975 110.283 460.83999999999975 C 110.283 460.83999999999975 103.856 458.30799999999977 102.882 454.0239999999998 C 101.908 449.73899999999975 102.68700000000001 447.59699999999975 102.68700000000001 447.59699999999975 C 102.68700000000001 447.59699999999975 107.45900000000002 447.59699999999975 107.84800000000001 446.62299999999976 C 108.23800000000001 445.6489999999998 110.86700000000002 438.7349999999998 111.84100000000001 434.25599999999974 C 112.81500000000001 429.77699999999976 115.15200000000002 418.48099999999977 115.15200000000002 418.48099999999977 C 115.15200000000002 418.48099999999977 119.04700000000001 413.0279999999998 119.24200000000002 411.85899999999975 C 119.43700000000001 410.69099999999975 121.67600000000002 408.06099999999975 121.67600000000002 408.06099999999975 C 121.67600000000002 408.06099999999975 124.20800000000001 404.84699999999975 124.69500000000002 403.1919999999998 C 125.18200000000003 401.5369999999998 128.78500000000003 396.6679999999998 129.56400000000002 393.4539999999998 C 130.34300000000002 390.2399999999998 136.77 380.2109999999998 137.15900000000002 379.3339999999998 C 137.54800000000003 378.45699999999977 141.63800000000003 370.4729999999998 141.63800000000003 370.4729999999998 C 141.63800000000003 370.4729999999998 147.77300000000002 374.95199999999977 151.47300000000004 378.2629999999998 C 155.17300000000003 381.5739999999998 160.14000000000004 390.1429999999998 160.91900000000004 390.5319999999998 C 161.69800000000004 390.9219999999998 160.82200000000003 392.6739999999998 161.99000000000004 394.1349999999998 C 163.15900000000005 395.59599999999983 164.71700000000004 397.2509999999998 165.00900000000004 398.8089999999998 C 165.30100000000004 400.3669999999998 166.17700000000005 404.8459999999998 167.15100000000004 406.5019999999998 C 168.12500000000003 408.1579999999998 168.70900000000003 412.4419999999998 169.00100000000003 414.6819999999998 C 169.29300000000003 416.9219999999998 169.68300000000002 423.5429999999998 170.65600000000003 426.5619999999998 C 171.63000000000002 429.5809999999998 171.82500000000005 436.39699999999976 172.21400000000003 437.8579999999998 C 172.604 439.3189999999998 173.57700000000003 441.2659999999998 173.57700000000003 441.2659999999998 C 173.57700000000003 441.2659999999998 179.71200000000002 442.4349999999998 180.10100000000003 443.21399999999977 C 180.49000000000004 443.99299999999977 179.80900000000003 444.38299999999975 180.10100000000003 445.8429999999998 C 180.39300000000003 447.3039999999998 181.95100000000002 449.0559999999998 181.27000000000004 450.0299999999998 C 180.58800000000005 451.0039999999998 179.32300000000004 454.1199999999998 180.78300000000004 455.8729999999998 C 182.24400000000006 457.6259999999998 181.46500000000003 465.22099999999983 182.63300000000004 465.9029999999998 C 183.80200000000005 466.5849999999998 191.59200000000004 467.3639999999998 192.85800000000003 465.9029999999998 C 194.12400000000002 464.4419999999998 191.39700000000002 454.8989999999998 190.81300000000005 452.1729999999998 C 190.22900000000004 449.4459999999998 187.89200000000005 440.4879999999998 187.89200000000005 440.4879999999998 C 187.89200000000005 440.4879999999998 189.35300000000007 439.80599999999976 189.06100000000006 438.5399999999998 C 188.76900000000006 437.2739999999998 185.55500000000006 423.5439999999998 185.16600000000005 420.6229999999998 C 184.77700000000004 417.7019999999998 184.09500000000006 414.0009999999998 184.29000000000005 412.6379999999998 C 184.48500000000004 411.2749999999998 185.06900000000005 410.7879999999998 183.51100000000005 407.8669999999998 C 181.95300000000006 404.9459999999998 182.24500000000006 396.9609999999998 180.68700000000004 394.0389999999998 C 179.12900000000005 391.1179999999998 174.45500000000004 379.23799999999983 174.45500000000004 379.23799999999983 C 174.45500000000004 379.23799999999983 177.47400000000005 378.26399999999984 177.66900000000004 376.31699999999984 C 177.86400000000003 374.36899999999986 174.45500000000004 359.47099999999983 174.16300000000004 359.27599999999984 C 173.87100000000004 359.08099999999985 170.26800000000003 359.17899999999986 170.26800000000003 359.17899999999986 C 170.26800000000003 359.17899999999986 165.98300000000003 352.0699999999999 164.42500000000004 351.77799999999985 C 162.86700000000005 351.4859999999999 161.60100000000003 351.87499999999983 161.60100000000003 351.87499999999983 C 161.60100000000003 351.87499999999983 161.40600000000003 347.4929999999998 160.43200000000002 347.20099999999985 C 159.45800000000003 346.9089999999999 156.829 343.30599999999987 156.342 341.45599999999985 C 155.85500000000002 339.6059999999998 156.537 335.61299999999983 155.56300000000002 334.24999999999983 C 154.58900000000003 332.88699999999983 153.81000000000003 332.0099999999998 153.81000000000003 332.0099999999998 L 154.10200000000003 329.0889999999998 L 163.45000000000005 329.9649999999998 L 163.83900000000006 326.8489999999998 L 169.87600000000006 325.3879999999998 C 169.87600000000006 325.3879999999998 172.21300000000005 326.0699999999998 173.57600000000005 325.5829999999998 C 174.93900000000005 325.0959999999998 178.54200000000006 323.1489999999998 180.49000000000004 324.1219999999998 C 182.43800000000005 325.0959999999998 184.28800000000004 326.7509999999998 185.55400000000003 326.1669999999998 C 186.82000000000002 325.5829999999998 187.11200000000002 322.1749999999998 187.11200000000002 321.6879999999998 C 187.11200000000002 321.20099999999985 188.57300000000004 320.81199999999984 188.37800000000001 320.3249999999998 C 188.18300000000002 319.8379999999998 185.262 317.01399999999984 185.262 317.01399999999984 C 185.262 317.01399999999984 179.809 314.87199999999984 178.251 314.77399999999983 C 176.693 314.67699999999985 170.75300000000001 316.9159999999998 170.75300000000001 316.9159999999998 C 170.75300000000001 316.9159999999998 169.68200000000002 316.03999999999985 168.513 316.3319999999998 C 167.344 316.6239999999998 164.228 318.57199999999983 164.228 318.57199999999983 L 155.95100000000002 315.45599999999985 C 155.95100000000002 315.45599999999985 157.31400000000002 313.31399999999985 157.12000000000003 312.92399999999986 C 156.92500000000004 312.53499999999985 155.46500000000003 308.15299999999985 155.36700000000005 306.69199999999984 C 155.27000000000004 305.2309999999998 155.46400000000006 303.57599999999985 155.36700000000005 303.2839999999998 C 155.27000000000004 302.99199999999985 159.74900000000005 302.6019999999998 159.74900000000005 300.6549999999998 C 159.74900000000005 298.7069999999998 157.50900000000004 293.9359999999998 157.12000000000006 292.7669999999998 C 156.73100000000005 291.5989999999998 155.75700000000006 291.01399999999984 154.68600000000006 290.3329999999998 C 153.615 289.653 155.901 286.268 154.028 283.919 z" stroke-linecap="round" />
</g>
		<g transform="matrix(1.9 0 0 1.9 183.5 0.01)"  >
<path style="stroke: none; stroke-width: 1; stroke-dasharray: none; stroke-linecap: butt; stroke-dashoffset: 0; stroke-linejoin: miter; stroke-miterlimit: 4; fill: rgb(0,0,0); fill-rule: nonzero; opacity: 1;" vector-effect="non-scaling-stroke"  transform=" translate(-467.52, -384.28)" d="M 525.898 393.413 L 512.993 385.901 C 512.993 385.901 510.6170000000001 381.471 509.26900000000006 380.765 C 507.92100000000005 380.05899999999997 506.2510000000001 377.876 506.2510000000001 377.876 C 506.2510000000001 377.876 502.3350000000001 373.959 499.9590000000001 371.969 C 497.58300000000014 369.979 493.6030000000001 370.10699999999997 493.6030000000001 370.10699999999997 L 491.5480000000001 367.34599999999995 L 490.5850000000001 364.26399999999995 C 490.5850000000001 364.26399999999995 491.0990000000001 361.43899999999996 490.5210000000001 359.256 C 489.9430000000001 357.073 488.01700000000005 352.19399999999996 487.11800000000005 350.267 C 486.21900000000005 348.341 486.66900000000004 345.644 486.92500000000007 343.782 C 487.1820000000001 341.91999999999996 486.9890000000001 339.73699999999997 486.9890000000001 339.73699999999997 C 486.9890000000001 339.73699999999997 488.5300000000001 339.99399999999997 489.1720000000001 339.73699999999997 C 489.8140000000001 339.47999999999996 490.5200000000001 335.94899999999996 491.4190000000001 334.79299999999995 C 492.3180000000001 333.63699999999994 494.1160000000001 334.79299999999995 494.1160000000001 334.79299999999995 L 494.8910000000001 333.10099999999994 C 494.8910000000001 333.10099999999994 505.29300000000006 338.21099999999996 507.48300000000006 334.74299999999994 C 509.67300000000006 331.27599999999995 501.6430000000001 322.15099999999995 501.6430000000001 322.15099999999995 L 507.48300000000006 311.56699999999995 C 507.48300000000006 311.56699999999995 497.26400000000007 301.71299999999997 493.61400000000003 301.16499999999996 C 489.96400000000006 300.61799999999994 483.57700000000006 303.17199999999997 483.57700000000006 303.17199999999997 L 482.1170000000001 306.82199999999995 C 482.1170000000001 306.82199999999995 472.0800000000001 300.79999999999995 468.06500000000005 306.82199999999995 C 464.05000000000007 312.84399999999994 474.08700000000005 320.32599999999996 474.08700000000005 320.32599999999996 L 468.87200000000007 320.058 C 468.87200000000007 320.058 466.8020000000001 322.817 465.0780000000001 322.703 C 463.35300000000007 322.58799999999997 457.0290000000001 326.267 457.0290000000001 326.267 C 457.0290000000001 326.267 454.7290000000001 325.807 450.2450000000001 327.072 C 445.76100000000014 328.337 440.1270000000001 332.361 438.5170000000001 335.581 C 436.9070000000001 338.80100000000004 434.4930000000001 341.79 431.6180000000001 344.32 C 428.7430000000001 346.84999999999997 427.7090000000001 352.714 427.7090000000001 352.714 C 427.7090000000001 352.714 425.17900000000014 353.979 422.9950000000001 354.209 C 420.8100000000001 354.439 422.1900000000001 356.739 420.46500000000015 358.578 C 418.7400000000001 360.41799999999995 420.58000000000015 360.073 420.58000000000015 360.073 L 420.8100000000002 363.40799999999996 L 418.8550000000002 366.51199999999994 L 416.5560000000002 365.93699999999995 C 416.5560000000002 365.93699999999995 413.5660000000002 368.23699999999997 414.6010000000002 369.84599999999995 C 412.3010000000002 372.49099999999993 409.5420000000002 386.28799999999995 412.1860000000002 391.00199999999995 C 414.8310000000002 395.71599999999995 420.2350000000002 396.751 423.6840000000002 398.70599999999996 C 427.1330000000002 400.66099999999994 435.6420000000002 406.525 435.6420000000002 406.525 C 435.6420000000002 406.525 430.35300000000024 416.988 428.7430000000002 419.40299999999996 C 427.1330000000002 421.818 420.2340000000002 430.21099999999996 418.5100000000002 431.936 C 416.7850000000002 433.661 417.93500000000023 435.5 417.93500000000023 435.5 L 415.5200000000002 439.754 L 412.7600000000002 438.374 C 412.7600000000002 438.374 413.10500000000025 436.53400000000005 411.8400000000002 436.189 C 410.5750000000002 435.844 408.6200000000002 436.764 409.1950000000002 438.374 C 409.7700000000002 439.98400000000004 411.09100000000024 439.639 411.09100000000024 439.639 L 413.33500000000026 440.789 C 413.33500000000026 440.789 413.33500000000026 442.399 411.84000000000026 444.238 C 410.34500000000025 446.078 411.61000000000024 448.032 411.26500000000027 450.332 C 410.92000000000024 452.632 414.9450000000003 453.896 414.3700000000003 455.391 C 413.7950000000003 456.886 419.1990000000003 463.32500000000005 419.1990000000003 463.32500000000005 C 419.1990000000003 463.32500000000005 423.3380000000003 466.66 430.4670000000003 467.34900000000005 C 437.59600000000034 468.03900000000004 441.3900000000003 465.78100000000006 441.3900000000003 465.78100000000006 C 441.3900000000003 465.78100000000006 441.3900000000003 463.20900000000006 441.0450000000003 462.17500000000007 C 440.7000000000003 461.14000000000004 437.7110000000003 460.45000000000005 435.4110000000003 459.41600000000005 C 433.1120000000003 458.38100000000003 430.2370000000003 452.28700000000003 430.2370000000003 452.28700000000003 L 430.2370000000003 448.723 L 433.9160000000003 449.06800000000004 C 433.9160000000003 449.06800000000004 435.06600000000026 447.91800000000006 436.9060000000003 443.89400000000006 C 438.74600000000027 439.87000000000006 452.7730000000003 423.19700000000006 455.6480000000003 419.86300000000006 C 458.5230000000003 416.52900000000005 468.0660000000003 406.06500000000005 469.1010000000003 403.30600000000004 C 470.1360000000003 400.547 467.11600000000027 397.09700000000004 467.11600000000027 397.09700000000004 L 478.18400000000025 394.56700000000006 L 483.47300000000024 396.1770000000001 L 484.39300000000026 407.56000000000006 C 484.39300000000026 407.56000000000006 486.34800000000024 435.50000000000006 486.1180000000003 437.34000000000003 C 485.88800000000026 439.18 487.6130000000003 440.56000000000006 487.6130000000003 440.56000000000006 L 486.1180000000003 444.8140000000001 C 486.1180000000003 444.8140000000001 482.3240000000003 441.5950000000001 481.74900000000025 443.77900000000005 C 481.17400000000026 445.96400000000006 484.9690000000003 446.07900000000006 484.9690000000003 446.07900000000006 L 484.5090000000003 447.45900000000006 L 485.7740000000003 448.14900000000006 C 485.7740000000003 448.14900000000006 485.8890000000003 449.75900000000007 485.6590000000003 450.79400000000004 C 485.42900000000026 451.82900000000006 486.4640000000003 458.26800000000003 487.1540000000003 459.96700000000004 C 487.8440000000003 461.66600000000005 496.1230000000003 462.63700000000006 496.1230000000003 462.63700000000006 C 496.1230000000003 462.63700000000006 496.1230000000003 462.63700000000006 496.5360000000003 461.4870000000001 C 500.2830000000003 460.56700000000006 503.9420000000003 463.9020000000001 506.81600000000026 465.16600000000005 C 509.69100000000026 466.43100000000004 515.8990000000002 465.3960000000001 518.6590000000002 465.16600000000005 C 521.4190000000002 464.93600000000004 523.0280000000002 461.8310000000001 523.0280000000002 461.8310000000001 C 523.0280000000002 461.8310000000001 522.9130000000002 460.10600000000005 521.9930000000003 458.84100000000007 C 521.0730000000003 457.5760000000001 514.2890000000003 456.54100000000005 511.64500000000027 455.96600000000007 C 509.0000000000003 455.3910000000001 509.23000000000025 454.7010000000001 508.08100000000024 452.51700000000005 C 506.93100000000027 450.33200000000005 504.74600000000027 447.3430000000001 504.74600000000027 447.3430000000001 L 505.89600000000024 445.3880000000001 L 504.8610000000002 444.35300000000007 L 502.7910000000002 444.35300000000007 L 502.1010000000002 440.5590000000001 L 503.4810000000002 439.0640000000001 L 502.90600000000023 434.69500000000005 L 503.94100000000026 432.51000000000005 C 503.94100000000026 432.51000000000005 503.36600000000027 417.677 503.71100000000024 411.00900000000007 C 504.05600000000027 404.3400000000001 503.71100000000024 394.2220000000001 503.71100000000024 394.2220000000001 C 503.71100000000024 394.2220000000001 504.51600000000025 394.0540000000001 505.41500000000025 394.1190000000001 C 506.31400000000025 394.1830000000001 507.7260000000002 392.3850000000001 507.7260000000002 392.3850000000001 C 507.7260000000002 392.3850000000001 509.58800000000025 392.4490000000001 510.35800000000023 392.4490000000001 C 511.1280000000002 392.4490000000001 511.6420000000002 390.26600000000013 511.6420000000002 390.26600000000013 L 521.7860000000002 396.49400000000014 L 522.7490000000001 395.46700000000016 C 522.7490000000001 395.46700000000016 523.8400000000001 395.66000000000014 525.0600000000002 395.46700000000016 C 526.283 395.274 525.898 393.413 525.898 393.413 z M 476.577 374.33 C 476.577 374.33 474.162 373.065 473.013 372.49 C 471.863 371.915 466.68899999999996 370.075 466.68899999999996 370.075 L 473.013 361.911 L 474.16299999999995 369.5 L 476.578 370.995 L 476.578 374.33 z" stroke-linecap="round" />
</g>
		<g transform="matrix(1.93 0 0 1.93 -212.07 0)"  >
<path style="stroke: none; stroke-width: 1; stroke-dasharray: none; stroke-linecap: butt; stroke-dashoffset: 0; stroke-linejoin: miter; stroke-miterlimit: 4; fill: rgb(0,0,0); fill-rule: nonzero; opacity: 1;" vector-effect="non-scaling-stroke"  transform=" translate(-301.57, -386.95)" d="M 237.109 434.767 C 237.109 434.767 237.9 445.614 243.889 454.48 C 233.493 447.083 237.109 434.767 237.109 434.767 z M 253.982 452.918 C 248.869 448.284 245.992 438.856 246.791 433.583 C 246.96 432.46500000000003 247.311 431.101 247.784 429.625 C 254.528 430.47 258.545 435.36 259.006 442.091 C 259.38 447.552 257.366 452.115 256.039 454.479 C 255.368 454.059 254.68 453.551 253.982 452.918 z M 284.182 444.929 C 282.904 447.486 274.914 452.43899999999996 274.914 452.43899999999996 C 274.914 452.43899999999996 268.043 452.43899999999996 266.126 452.75899999999996 C 264.20799999999997 453.078 263.729 455.955 263.729 455.955 C 263.729 455.955 261.388 456.75 258.203 455.558 C 267.748 434.462 255.90399999999997 427.687 249.26299999999998 425.635 C 251.17299999999997 421.06399999999996 253.861 416.316 256.378 414.089 C 260.53299999999996 410.414 269.401 408.496 269.401 408.496 C 270.599 413.28999999999996 276.831 412.491 276.831 412.491 C 276.831 412.491 280.986 420.001 281.625 422.23199999999997 C 282.264 424.46299999999997 284.821 430.707 284.182 433.58399999999995 C 283.543 436.4599999999999 287.058 440.13499999999993 287.058 440.13499999999993 C 287.058 440.13499999999993 285.461 442.372 284.182 444.929 z M 365.514 408.815 L 366.795 401.947 C 365.998 399.869 364.243 396.037 364.243 396.037 C 364.243 396.037 365.514 391.71999999999997 364.395 389.48199999999997 C 363.28499999999997 387.243 359.443 376.542 357.204 370.94399999999996 C 354.975 365.35599999999994 350.658 358.32599999999996 347.3 352.568 C 343.942 346.81899999999996 335.79200000000003 340.74699999999996 335.79200000000003 340.74699999999996 L 331.485 339.46599999999995 L 324.76800000000003 336.26899999999995 L 323.971 334.03 C 323.971 334.03 333.078 330.03599999999994 334.198 326.042 C 335.318 322.04799999999994 333.875 319.496 333.875 319.496 L 334.359 315.341 C 334.359 315.341 330.52599999999995 307.98900000000003 319.341 315.341 C 316.78000000000003 311.18600000000004 311.505 303.036 299.039 309.269 C 293.45099999999996 310.701 292.009 313.424 292.16999999999996 314.857 C 292.33099999999996 316.29900000000004 294.40899999999993 327.16200000000003 294.40899999999993 327.16200000000003 L 288.33699999999993 330.99500000000006 C 288.33699999999993 330.99500000000006 281.14599999999996 331.7920000000001 281.14599999999996 333.39500000000004 C 281.14599999999996 334.98900000000003 296.38199999999995 335.444 296.38199999999995 335.444 C 296.38199999999995 335.444 297.98499999999996 338.973 299.1619999999999 339.89300000000003 C 300.3379999999999 340.82300000000004 301.7609999999999 341.439 302.5009999999999 341.38300000000004 C 303.24099999999993 341.31700000000006 302.5009999999999 341.94300000000004 302.5009999999999 341.94300000000004 C 302.5009999999999 341.94300000000004 300.0249999999999 342.247 299.1619999999999 342.86300000000006 C 298.2989999999999 343.4800000000001 297.3119999999999 345.65200000000004 297.3119999999999 345.65200000000004 C 297.3119999999999 345.65200000000004 294.4659999999999 347.69200000000006 293.9059999999999 348.48900000000003 C 293.3559999999999 349.295 291.1259999999999 352.01800000000003 290.9369999999999 352.26500000000004 C 290.7569999999999 352.51200000000006 289.7699999999999 352.701 289.7699999999999 353.37500000000006 C 289.7699999999999 354.05800000000005 289.7699999999999 355.23400000000004 289.7699999999999 355.23400000000004 C 289.7699999999999 355.23400000000004 287.9769999999999 356.59100000000007 287.0469999999999 357.57700000000006 C 286.1169999999999 358.57300000000004 285.8709999999999 360.49000000000007 285.8709999999999 360.49000000000007 C 285.8709999999999 360.49000000000007 283.09099999999995 363.64000000000004 281.4789999999999 364.50300000000004 C 279.8759999999999 365.37600000000003 276.90599999999995 367.71900000000005 276.7169999999999 368.45900000000006 C 276.5369999999999 369.2080000000001 274.0609999999999 367.96600000000007 270.9679999999999 368.8380000000001 C 267.8749999999999 369.7010000000001 265.0959999999999 371.79800000000006 264.9159999999999 372.4240000000001 C 264.7259999999999 373.0410000000001 266.2729999999999 376.8730000000001 266.2729999999999 376.8730000000001 C 266.2729999999999 376.8730000000001 264.2329999999999 380.2120000000001 263.0569999999999 381.2650000000001 C 261.8809999999999 382.3090000000001 260.5239999999999 384.8510000000001 259.7179999999999 387.3180000000001 C 258.9119999999999 389.7940000000001 257.9249999999999 393.0670000000001 257.99099999999993 393.8170000000001 C 258.04799999999994 394.55700000000013 258.78799999999995 398.8830000000001 258.78799999999995 398.8830000000001 C 258.78799999999995 398.8830000000001 242.31899999999996 403.8640000000001 235.77299999999997 419.8400000000001 C 229.21799999999996 435.8260000000001 233.04999999999995 454.2020000000001 244.87999999999997 462.0290000000001 C 256.70099999999996 469.8560000000001 283.86199999999997 467.77800000000013 292.96899999999994 459.1550000000001 C 299.36299999999994 459.1550000000001 304.6379999999999 459.1550000000001 305.12199999999996 458.3490000000001 C 305.59599999999995 457.5520000000001 304.477 447.0120000000001 304.477 447.0120000000001 L 303.84099999999995 441.57600000000014 C 303.84099999999995 441.57600000000014 304.96 435.02000000000015 304.31499999999994 429.4330000000001 C 303.6789999999999 423.8360000000001 299.20199999999994 413.9310000000001 299.20199999999994 413.9310000000001 C 299.20199999999994 413.9310000000001 304.15399999999994 416.8050000000001 308.15799999999996 416.3310000000001 C 306.71599999999995 420.00200000000007 309.116 424.3190000000001 309.59 426.55800000000005 C 310.07399999999996 428.78700000000003 312.152 434.06200000000007 315.349 435.02000000000004 C 318.537 435.97800000000007 327.331 439.01400000000007 330.36699999999996 439.82000000000005 C 333.40299999999996 440.6170000000001 335.794 442.21100000000007 335.794 442.21100000000007 L 342.027 450.0470000000001 C 342.027 450.0470000000001 342.51099999999997 458.9930000000001 342.027 461.3930000000001 C 341.553 463.7840000000001 341.714 465.0640000000001 344.75 465.5390000000001 C 347.786 466.0230000000001 355.613 464.9030000000001 356.248 463.4610000000001 C 356.893 462.0290000000001 357.529 458.03500000000014 356.893 455.6340000000001 C 356.248 453.2430000000001 356.248 449.4010000000001 356.248 449.4010000000001 L 359.132 448.6040000000001 L 360.403 442.8550000000001 C 360.403 442.8550000000001 357.69 438.21600000000007 355.612 436.93500000000006 C 353.53400000000005 435.66400000000004 350.499 431.50800000000004 350.499 431.50800000000004 L 346.34400000000005 427.514 L 355.93500000000006 425.27500000000003 C 355.93500000000006 425.27500000000003 357.52900000000005 432.144 360.4030000000001 432.94000000000005 C 363.2870000000001 433.74600000000004 362.48100000000005 428.31000000000006 362.48100000000005 428.31000000000006 C 362.48100000000005 428.31000000000006 369.672 419.36400000000003 370.46900000000005 417.12500000000006 C 371.272 414.887 365.514 408.815 365.514 408.815 z M 268.206 398.427 L 267.56100000000004 396.672 L 268.206 394.11100000000005 C 268.84200000000004 396.189 271.242 398.42800000000005 271.242 398.42800000000005 L 268.206 398.42800000000005 z M 320.138 391.236 C 320.138 391.236 312.15 386.606 304.63599999999997 384.045 C 297.12199999999996 381.493 287.05699999999996 379.738 287.05699999999996 379.738 L 289.13499999999993 377.66 L 291.05099999999993 373.50500000000005 C 291.05099999999993 373.50500000000005 295.04499999999996 373.50500000000005 297.7679999999999 372.22400000000005 C 300.48099999999994 370.94300000000004 304.9589999999999 365.83000000000004 304.9589999999999 365.83000000000004 L 307.8339999999999 372.69800000000004 L 310.3859999999999 373.97900000000004 L 312.1509999999999 377.499 C 312.1509999999999 377.499 314.8639999999999 382.451 315.9839999999999 384.367 C 317.1039999999999 386.283 320.1389999999999 388.997 320.1389999999999 388.997 L 320.1389999999999 391.236 z" stroke-linecap="round" />
</g>
</g>
</g>
</svg>